CalSansText-Regular.ufo
<glyph name="percent" format="2">
  <advance width="741.0"/>
  <unicode hex="0025"/>
  <outline>
    <contour>
      <point x="82.0" y="0.0" type="line"/>
      <point x="154.5" y="0.0" type="line"/>
      <point x="651.5" y="700.0" type="line"/>
      <point x="580.0" y="700.0" type="line"/>
    </contour>
    <contour>
      <point x="540.0" y="-6.5" type="curve" smooth="yes"/>
      <point x="628.75" y="-6.5"/>
      <point x="696.0" y="63.75"/>
      <point x="696.0" y="145.5" type="curve" smooth="yes"/>
      <point x="696.0" y="227.5"/>
      <point x="629.5" y="300.5"/>
      <point x="540.0" y="300.5" type="curve" smooth="yes"/>
      <point x="451.25" y="300.5"/>
      <point x="385.0" y="228.25"/>
      <point x="385.0" y="145.5" type="curve" smooth="yes"/>
      <point x="385.0" y="63.75"/>
      <point x="451.25" y="-6.5"/>
    </contour>
    <contour>
      <point x="540.0" y="50.25" type="curve" smooth="yes"/>
      <point x="485.5" y="50.25"/>
      <point x="448.5" y="92.75"/>
      <point x="448.5" y="144.75" type="curve" smooth="yes"/>
      <point x="448.5" y="200.25"/>
      <point x="485.5" y="242.75"/>
      <point x="540.0" y="242.75" type="curve" smooth="yes"/>
      <point x="595.25" y="242.75"/>
      <point x="632.25" y="200.25"/>
      <point x="632.25" y="144.75" type="curve" smooth="yes"/>
      <point x="633.5" y="91.0"/>
      <point x="597.0" y="50.0"/>
    </contour>
    <contour>
      <point x="200.0" y="401.0" type="curve" smooth="yes"/>
      <point x="288.75" y="401.0"/>
      <point x="356.0" y="471.25"/>
      <point x="356.0" y="553.0" type="curve" smooth="yes"/>
      <point x="356.0" y="634.75"/>
      <point x="289.75" y="708.0"/>
      <point x="200.0" y="708.0" type="curve" smooth="yes"/>
      <point x="111.25" y="708.0"/>
      <point x="45.0" y="635.75"/>
      <point x="45.0" y="553.0" type="curve" smooth="yes"/>
      <point x="45.0" y="471.25"/>
      <point x="111.25" y="401.0"/>
    </contour>
    <contour>
      <point x="200.0" y="457.75" type="curve" smooth="yes"/>
      <point x="145.5" y="457.75"/>
      <point x="108.5" y="500.25"/>
      <point x="108.5" y="552.25" type="curve" smooth="yes"/>
      <point x="108.5" y="607.75"/>
      <point x="145.5" y="650.25"/>
      <point x="200.0" y="650.25" type="curve" smooth="yes"/>
      <point x="255.5" y="650.25"/>
      <point x="292.25" y="607.75"/>
      <point x="292.25" y="552.25" type="curve" smooth="yes"/>
      <point x="293.5" y="498.5"/>
      <point x="257.25" y="457.75"/>
    </contour>
  </outline>
</glyph>
<glyph name="one" format="2">
  <advance width="304.0"/>
  <unicode hex="0031"/>
  <outline>
    <contour>
      <point x="122.75" y="0.0" type="line"/>
      <point x="220.25" y="0.0" type="line"/>
      <point x="220.25" y="713.0" type="line"/>
      <point x="-1.5" y="623.25" type="line"/>
      <point x="32.5" y="538.25" type="line"/>
      <point x="120.25" y="575.0" type="line"/>
      <point x="122.75" y="571.75" type="line"/>
    </contour>
  </outline>
</glyph>
<glyph name="question" format="2">
  <advance width="515.75"/>
  <unicode hex="003F"/>
  <outline>
    <contour>
      <point x="210.5" y="160.5" type="line"/>
      <point x="278.25" y="160.5" type="line"/>
      <point x="285.75" y="301.0" type="line"/>
      <point x="289.5" y="304.0" type="line"/>
      <point x="404.25" y="317.0"/>
      <point x="474.25" y="395.75"/>
      <point x="474.25" y="502.25" type="curve" smooth="yes"/>
      <point x="474.25" y="625.75"/>
      <point x="382.5" y="713.0"/>
      <point x="259.5" y="713.0" type="curve" smooth="yes"/>
      <point x="121.75" y="713.0"/>
      <point x="31.75" y="622.25"/>
      <point x="31.75" y="500.0" type="curve"/>
      <point x="130.0" y="500.0" type="line"/>
      <point x="130.0" y="570.5"/>
      <point x="176.0" y="625.0"/>
      <point x="258.0" y="625.0" type="curve" smooth="yes"/>
      <point x="329.0" y="625.0"/>
      <point x="374.5" y="573.5"/>
      <point x="374.5" y="494.75" type="curve" smooth="yes"/>
      <point x="374.5" y="420.75"/>
      <point x="329.5" y="367.75"/>
      <point x="242.0" y="367.75" type="curve" smooth="yes"/>
      <point x="227.25" y="367.75"/>
      <point x="206.25" y="370.75"/>
      <point x="201.0" y="373.5" type="curve"/>
    </contour>
    <component base="period" xOffset="127.75"/>
  </outline>
</glyph>
<glyph name="at" format="2">
  <advance width="996.5"/>
  <unicode hex="0040"/>
  <outline>
    <contour>
      <point x="517.75" y="-216.0" type="curve" smooth="yes"/>
      <point x="571.75" y="-216.0"/>
      <point x="623.75" y="-208.0"/>
      <point x="671.75" y="-192.0" type="curve"/>
      <point x="647.75" y="-123.75" type="line"/>
      <point x="608.75" y="-136.5"/>
      <point x="567.0" y="-144.5"/>
      <point x="519.5" y="-144.5" type="curve" smooth="yes"/>
      <point x="287.0" y="-144.5"/>
      <point x="132.75" y="27.5"/>
      <point x="132.75" y="248.0" type="curve" smooth="yes"/>
      <point x="132.75" y="465.75"/>
      <point x="287.0" y="642.0"/>
      <point x="516.5" y="642.0" type="curve" smooth="yes"/>
      <point x="749.75" y="642.0"/>
      <point x="868.75" y="462.75"/>
      <point x="868.75" y="310.75" type="curve" smooth="yes"/>
      <point x="868.75" y="199.0"/>
      <point x="828.0" y="114.75"/>
      <point x="766.75" y="114.75" type="curve" smooth="yes"/>
      <point x="723.5" y="114.75"/>
      <point x="707.5" y="144.75"/>
      <point x="707.5" y="198.25" type="curve" smooth="yes"/>
      <point x="707.5" y="216.5"/>
      <point x="709.25" y="236.75"/>
      <point x="711.25" y="255.75" type="curve" smooth="yes"/>
      <point x="735.0" y="462.0" type="line"/>
      <point x="641.5" y="462.0" type="line"/>
      <point x="634.75" y="390.0" type="line"/>
      <point x="629.75" y="390.0" type="line"/>
      <point x="609.5" y="441.75"/>
      <point x="569.5" y="474.75"/>
      <point x="500.75" y="474.75" type="curve" smooth="yes"/>
      <point x="367.75" y="474.75"/>
      <point x="267.75" y="365.5"/>
      <point x="267.75" y="238.75" type="curve" smooth="yes"/>
      <point x="267.75" y="120.0"/>
      <point x="346.0" y="35.25"/>
      <point x="461.25" y="35.25" type="curve" smooth="yes"/>
      <point x="539.5" y="35.25"/>
      <point x="593.25" y="78.5"/>
      <point x="615.0" y="141.25" type="curve"/>
      <point x="620.0" y="141.25" type="line"/>
      <point x="632.5" y="76.25"/>
      <point x="679.0" y="35.25"/>
      <point x="753.0" y="35.25" type="curve" smooth="yes"/>
      <point x="876.5" y="35.25"/>
      <point x="945.25" y="161.0"/>
      <point x="945.25" y="296.0" type="curve" smooth="yes"/>
      <point x="945.25" y="507.0"/>
      <point x="781.75" y="713.0"/>
      <point x="517.75" y="713.0" type="curve" smooth="yes"/>
      <point x="250.75" y="713.0"/>
      <point x="56.25" y="507.0"/>
      <point x="56.25" y="248.0" type="curve" smooth="yes"/>
      <point x="56.25" y="-13.0"/>
      <point x="250.75" y="-216.0"/>
    </contour>
    <contour>
      <point x="482.0" y="121.0" type="curve" smooth="yes"/>
      <point x="409.75" y="121.0"/>
      <point x="364.75" y="171.5"/>
      <point x="364.75" y="241.75" type="curve" smooth="yes"/>
      <point x="364.75" y="324.5"/>
      <point x="424.75" y="388.75"/>
      <point x="513.25" y="388.75" type="curve" smooth="yes"/>
      <point x="571.75" y="388.75"/>
      <point x="620.0" y="337.75"/>
      <point x="620.0" y="269.75" type="curve" smooth="yes"/>
      <point x="620.0" y="188.5"/>
      <point x="556.75" y="121.0"/>
    </contour>
  </outline>
</glyph>
<glyph name="C" format="2">
  <advance width="683.75"/>
  <unicode hex="0043"/>
  <anchor x="401.0" y="0.0" name="bottom"/>
  <anchor x="504.0" y="0.0" name="ogonek"/>
  <anchor x="401.0" y="700.0" name="top"/>
  <outline>
    <contour>
      <point x="401.0" y="-13.0" type="curve" smooth="yes"/>
      <point x="517.0" y="-13.0"/>
      <point x="604.25" y="30.75"/>
      <point x="662.5" y="101.5" type="curve"/>
      <point x="591.75" y="160.75" type="line"/>
      <point x="543.75" y="106.5"/>
      <point x="486.25" y="78.5"/>
      <point x="404.0" y="78.5" type="curve" smooth="yes"/>
      <point x="255.75" y="78.5"/>
      <point x="142.25" y="191.75"/>
      <point x="142.25" y="349.0" type="curve" smooth="yes"/>
      <point x="142.25" y="505.5"/>
      <point x="248.25" y="621.5"/>
      <point x="401.0" y="621.5" type="curve" smooth="yes"/>
      <point x="476.0" y="621.5"/>
      <point x="538.25" y="598.75"/>
      <point x="587.0" y="539.75" type="curve"/>
      <point x="657.75" y="602.5" type="line"/>
      <point x="594.0" y="678.25"/>
      <point x="506.5" y="713.0"/>
      <point x="401.0" y="713.0" type="curve" smooth="yes"/>
      <point x="194.0" y="713.0"/>
      <point x="41.25" y="552.25"/>
      <point x="41.25" y="349.0" type="curve" smooth="yes"/>
      <point x="41.25" y="146.0"/>
      <point x="197.5" y="-13.0"/>
    </contour>
  </outline>
</glyph>
<glyph name="I" format="2">
  <advance width="259.5"/>
  <unicode hex="0049"/>
  <anchor x="129.75" y="0.0" name="bottom"/>
  <anchor x="95.5" y="0.0" name="ogonek"/>
  <anchor x="129.75" y="700.0" name="top"/>
  <outline>
    <contour>
      <point x="81.5" y="0.0" type="line"/>
      <point x="178.0" y="0.0" type="line"/>
      <point x="178.0" y="700.0" type="line"/>
      <point x="81.5" y="700.0" type="line"/>
      <point x="81.5" y="360.25" type="line"/>
    </contour>
  </outline>
</glyph>
<glyph name="bracketleft" format="2">
  <advance width="315.25"/>
  <unicode hex="005B"/>
  <outline>
    <contour>
      <point x="83.5" y="-220.0" type="line"/>
      <point x="259.0" y="-220.0" type="line"/>
      <point x="259.0" y="-150.5" type="line"/>
      <point x="166.5" y="-150.5" type="line"/>
      <point x="166.5" y="670.5" type="line"/>
      <point x="259.0" y="670.5" type="line"/>
      <point x="259.0" y="740.0" type="line"/>
      <point x="83.5" y="740.0" type="line"/>
    </contour>
  </outline>
</glyph>
<glyph name="d" format="2">
  <advance width="613.25"/>
  <unicode hex="0064"/>
  <anchor x="472.5" y="591.75" name="bar"/>
  <anchor x="279.75" y="0.0" name="bottom"/>
  <anchor x="287.25" y="247.0" name="center"/>
  <anchor x="280.5" y="477.25" name="top"/>
  <anchor x="613.0" y="700.0" name="topright"/>
  <outline>
    <contour>
      <point x="275.75" y="-13.0" type="curve" smooth="yes"/>
      <point x="358.25" y="-13.0"/>
      <point x="417.5" y="29.25"/>
      <point x="446.25" y="89.0" type="curve"/>
      <point x="452.25" y="89.0" type="line"/>
      <point x="452.25" y="0.0" type="line"/>
      <point x="542.0" y="0.0" type="line"/>
      <point x="542.0" y="700.0" type="line"/>
      <point x="448.25" y="700.0" type="line"/>
      <point x="448.25" y="406.5" type="line"/>
      <point x="441.5" y="406.5" type="line"/>
      <point x="415.0" y="463.75"/>
      <point x="353.5" y="506.75"/>
      <point x="275.75" y="506.75" type="curve" smooth="yes"/>
      <point x="131.25" y="506.75"/>
      <point x="29.5" y="396.0"/>
      <point x="29.5" y="246.0" type="curve" smooth="yes"/>
      <point x="29.5" y="97.0"/>
      <point x="131.25" y="-13.0"/>
    </contour>
    <contour>
      <point x="287.25" y="73.25" type="curve" smooth="yes"/>
      <point x="185.0" y="73.25"/>
      <point x="123.25" y="147.75"/>
      <point x="123.25" y="247.0" type="curve" smooth="yes"/>
      <point x="123.25" y="348.25"/>
      <point x="185.0" y="420.5"/>
      <point x="287.25" y="420.5" type="curve" smooth="yes"/>
      <point x="385.0" y="420.5"/>
      <point x="449.0" y="346.0"/>
      <point x="449.0" y="246.0" type="curve" smooth="yes"/>
      <point x="449.0" y="149.25"/>
      <point x="385.0" y="73.25"/>
    </contour>
  </outline>
</glyph>
<glyph name="f" format="2">
  <advance width="392.5"/>
  <unicode hex="0066"/>
  <anchor x="161.25" y="0.0" name="bottom"/>
  <anchor x="251.25" y="700.0" name="top"/>
  <outline>
    <contour>
      <point x="116.0" y="0.0" type="line"/>
      <point x="209.75" y="0.0" type="line"/>
      <point x="209.75" y="539.5" type="line" smooth="yes"/>
      <point x="209.75" y="595.0"/>
      <point x="242.5" y="629.5"/>
      <point x="305.25" y="629.5" type="curve" smooth="yes"/>
      <point x="332.25" y="629.5"/>
      <point x="353.5" y="628.25"/>
      <point x="374.75" y="621.5" type="curve"/>
      <point x="374.75" y="703.5" type="line"/>
      <point x="343.5" y="711.0"/>
      <point x="325.75" y="713.0"/>
      <point x="289.75" y="713.0" type="curve" smooth="yes"/>
      <point x="188.0" y="713.0"/>
      <point x="116.0" y="646.0"/>
      <point x="116.0" y="543.75" type="curve" smooth="yes"/>
    </contour>
    <contour>
      <point x="17.75" y="409.75" type="line"/>
      <point x="374.75" y="409.75" type="line"/>
      <point x="374.75" y="493.75" type="line"/>
      <point x="17.75" y="493.75" type="line"/>
    </contour>
  </outline>
</glyph>
<glyph name="n" format="2">
  <advance width="570.5"/>
  <unicode hex="006E"/>
  <anchor x="291.75" y="0.0" name="bottom"/>
  <anchor x="410.25" y="0.0" name="ogonek"/>
  <anchor x="305.5" y="493.75" name="top"/>
  <outline>
    <contour>
      <point x="71.5" y="0.0" type="line"/>
      <point x="165.25" y="0.0" type="line"/>
      <point x="165.25" y="294.5" type="line" smooth="yes"/>
      <point x="165.25" y="372.75"/>
      <point x="216.0" y="421.5"/>
      <point x="296.25" y="421.5" type="curve" smooth="yes"/>
      <point x="366.0" y="421.5"/>
      <point x="410.25" y="372.75"/>
      <point x="410.25" y="294.5" type="curve" smooth="yes"/>
      <point x="410.25" y="0.0" type="line"/>
      <point x="504.0" y="0.0" type="line"/>
      <point x="504.0" y="316.25" type="line" smooth="yes"/>
      <point x="504.0" y="431.75"/>
      <point x="425.5" y="506.5"/>
      <point x="318.75" y="506.5" type="curve" smooth="yes"/>
      <point x="239.0" y="506.5"/>
      <point x="193.25" y="466.5"/>
      <point x="167.25" y="422.0" type="curve"/>
      <point x="161.25" y="422.0" type="line"/>
      <point x="161.25" y="493.75" type="line"/>
      <point x="71.5" y="493.75" type="line"/>
    </contour>
  </outline>
</glyph>
<glyph name="o" format="2">
  <advance width="580.25"/>
  <unicode hex="006F"/>
  <anchor x="289.75" y="0.0" name="bottom"/>
  <anchor x="289.75" y="248.0" name="center"/>
  <anchor x="311.25" y="-1.25" name="ogonek"/>
  <anchor x="289.75" y="493.75" name="top"/>
  <anchor x="456.25" y="493.75" name="topright"/>
  <outline>
    <contour>
      <point x="289.75" y="-13.0" type="curve" smooth="yes"/>
      <point x="436.75" y="-13.0"/>
      <point x="543.25" y="96.5"/>
      <point x="543.25" y="247.5" type="curve" smooth="yes"/>
      <point x="543.25" y="398.0"/>
      <point x="436.75" y="506.75"/>
      <point x="289.75" y="506.75" type="curve" smooth="yes"/>
      <point x="143.5" y="506.75"/>
      <point x="37.0" y="397.25"/>
      <point x="37.0" y="246.0" type="curve" smooth="yes"/>
      <point x="37.0" y="95.75"/>
      <point x="143.5" y="-13.0"/>
    </contour>
    <contour>
      <point x="289.75" y="73.25" type="curve" smooth="yes"/>
      <point x="193.5" y="73.25"/>
      <point x="130.75" y="147.0"/>
      <point x="130.75" y="246.75" type="curve" smooth="yes"/>
      <point x="130.75" y="348.25"/>
      <point x="193.5" y="420.5"/>
      <point x="289.75" y="420.5" type="curve" smooth="yes"/>
      <point x="386.0" y="420.5"/>
      <point x="449.5" y="346.75"/>
      <point x="449.5" y="246.75" type="curve" smooth="yes"/>
      <point x="449.5" y="145.5"/>
      <point x="386.0" y="73.25"/>
    </contour>
  </outline>
</glyph>
<glyph name="x" format="2">
  <advance width="538.25"/>
  <unicode hex="0078"/>
  <anchor x="269.25" y="0.0" name="bottom"/>
  <anchor x="269.25" y="493.75" name="top"/>
  <outline>
    <contour>
      <point x="21.5" y="0.0" type="line"/>
      <point x="133.0" y="0.0" type="line"/>
      <point x="267.25" y="189.25" type="line"/>
      <point x="271.25" y="189.25" type="line"/>
      <point x="402.25" y="0.0" type="line"/>
      <point x="516.75" y="0.0" type="line"/>
      <point x="328.75" y="248.75" type="line"/>
      <point x="505.25" y="493.75" type="line"/>
      <point x="395.25" y="493.75" type="line"/>
      <point x="271.0" y="311.5" type="line"/>
      <point x="267.0" y="311.5" type="line"/>
      <point x="146.75" y="493.75" type="line"/>
      <point x="33.75" y="493.75" type="line"/>
      <point x="210.25" y="250.0" type="line"/>
    </contour>
  </outline>
</glyph>
<glyph name="braceleft" format="2">
  <advance width="448.75"/>
  <unicode hex="007B"/>
  <outline>
    <contour>
      <point x="328.5" y="-224.0" type="curve" smooth="yes"/>
      <point x="347.5" y="-224.0"/>
      <point x="367.0" y="-223.0"/>
      <point x="387.25" y="-220.0" type="curve"/>
      <point x="387.25" y="-144.5" type="line"/>
      <point x="373.75" y="-147.75"/>
      <point x="361.5" y="-149.5"/>
      <point x="342.75" y="-149.5" type="curve" smooth="yes"/>
      <point x="286.5" y="-149.5"/>
      <point x="258.25" y="-116.5"/>
      <point x="258.25" y="-55.0" type="curve" smooth="yes"/>
      <point x="258.25" y="127.0" type="line" smooth="yes"/>
      <point x="258.25" y="241.0"/>
      <point x="165.25" y="270.0"/>
      <point x="147.25" y="272.0" type="curve"/>
      <point x="147.25" y="279.0" type="line"/>
      <point x="165.25" y="281.0"/>
      <point x="258.25" y="310.0"/>
      <point x="258.25" y="424.0" type="curve" smooth="yes"/>
      <point x="258.25" y="585.0" type="line" smooth="yes"/>
      <point x="258.25" y="646.5"/>
      <point x="286.5" y="679.5"/>
      <point x="342.75" y="679.5" type="curve" smooth="yes"/>
      <point x="361.5" y="679.5"/>
      <point x="373.75" y="677.75"/>
      <point x="387.25" y="674.5" type="curve"/>
      <point x="387.25" y="750.0" type="line"/>
      <point x="367.0" y="753.0"/>
      <point x="347.5" y="754.0"/>
      <point x="328.5" y="754.0" type="curve" smooth="yes"/>
      <point x="224.25" y="754.0"/>
      <point x="174.25" y="686.0"/>
      <point x="174.25" y="593.0" type="curve" smooth="yes"/>
      <point x="174.25" y="428.0" type="line" smooth="yes"/>
      <point x="174.25" y="363.75"/>
      <point x="147.25" y="319.75"/>
      <point x="67.25" y="315.25" type="curve"/>
      <point x="67.25" y="235.5" type="line"/>
      <point x="144.25" y="232.5"/>
      <point x="174.25" y="189.75"/>
      <point x="174.25" y="122.0" type="curve" smooth="yes"/>
      <point x="174.25" y="-63.0" type="line" smooth="yes"/>
      <point x="174.25" y="-156.0"/>
      <point x="224.25" y="-224.0"/>
    </contour>
  </outline>
</glyph>
<glyph name="cent" format="2">
  <advance width="493.75"/>
  <unicode hex="00A2"/>
  <anchor x="269.0" y="493.5" name="_TopCurrency"/>
  <outline>
    <contour>
      <point x="273.0" y="30.0" type="curve" smooth="yes"/>
      <point x="352.0" y="30.0"/>
      <point x="417.5" y="61.5"/>
      <point x="463.0" y="119.0" type="curve"/>
      <point x="400.5" y="172.5" type="line"/>
      <point x="371.0" y="134.0"/>
      <point x="330.25" y="114.25"/>
      <point x="276.0" y="114.25" type="curve" smooth="yes"/>
      <point x="186.75" y="114.25"/>
      <point x="123.25" y="177.25"/>
      <point x="123.25" y="274.25" type="curve" smooth="yes"/>
      <point x="123.25" y="371.25"/>
      <point x="186.0" y="436.25"/>
      <point x="273.0" y="436.25" type="curve" smooth="yes"/>
      <point x="324.75" y="436.25"/>
      <point x="365.5" y="416.25"/>
      <point x="397.0" y="374.75" type="curve"/>
      <point x="462.75" y="430.5" type="line"/>
      <point x="416.5" y="488.0"/>
      <point x="350.5" y="521.25"/>
      <point x="270.75" y="520.5" type="curve" smooth="yes"/>
      <point x="133.25" y="519.0"/>
      <point x="31.5" y="413.75"/>
      <point x="31.5" y="274.25" type="curve" smooth="yes"/>
      <point x="31.5" y="134.75"/>
      <point x="134.75" y="30.0"/>
    </contour>
    <component base="verticalTopCurrencycomb" xOffset="269.0" yOffset="-159.5"/>
    <component base="verticalBottomCurrencycomb" xOffset="269.0" yOffset="2.0"/>
  </outline>
</glyph>
<glyph name="sterling" format="2">
  <advance width="595.0"/>
  <unicode hex="00A3"/>
  <outline>
    <contour>
      <point x="105.5" y="20.0" type="line"/>
      <point x="130.5" y="55.0"/>
      <point x="169.5" y="69.0"/>
      <point x="215.5" y="69.0" type="curve" smooth="yes"/>
      <point x="290.5" y="69.0"/>
      <point x="315.0" y="24.0"/>
      <point x="403.5" y="24.0" type="curve" smooth="yes"/>
      <point x="448.5" y="24.0"/>
      <point x="518.5" y="45.0"/>
      <point x="565.5" y="109.0" type="curve"/>
      <point x="498.25" y="168.0" type="line"/>
      <point x="476.75" y="133.25"/>
      <point x="446.0" y="112.0"/>
      <point x="403.25" y="112.0" type="curve" smooth="yes"/>
      <point x="317.0" y="112.0"/>
      <point x="293.0" y="169.25"/>
      <point x="178.0" y="125.5" type="curve" smooth="yes"/>
      <point x="166.5" y="121.0"/>
      <point x="151.75" y="119.25"/>
      <point x="133.75" y="112.0" type="curve"/>
      <point x="159.5" y="102.0" type="line"/>
      <point x="219.25" y="145.75"/>
      <point x="265.0" y="224.0"/>
      <point x="265.0" y="263.5" type="curve" smooth="yes"/>
      <point x="265.0" y="289.75"/>
      <point x="262.25" y="308.25"/>
      <point x="247.5" y="329.0" type="curve"/>
      <point x="232.0" y="348.75" type="line"/>
      <point x="192.0" y="398.0"/>
      <point x="178.25" y="434.25"/>
      <point x="178.25" y="470.5" type="curve" smooth="yes"/>
      <point x="178.25" y="544.25"/>
      <point x="231.5" y="585.0"/>
      <point x="307.5" y="585.0" type="curve" smooth="yes"/>
      <point x="385.25" y="585.0"/>
      <point x="441.0" y="533.25"/>
      <point x="441.0" y="458.0" type="curve"/>
      <point x="539.5" y="458.0" type="line"/>
      <point x="539.5" y="585.75"/>
      <point x="446.5" y="673.0"/>
      <point x="305.5" y="673.0" type="curve" smooth="yes"/>
      <point x="166.5" y="673.0"/>
      <point x="77.5" y="592.25"/>
      <point x="77.5" y="476.5" type="curve" smooth="yes"/>
      <point x="77.5" y="415.0"/>
      <point x="102.0" y="373.75"/>
      <point x="154.0" y="333.75" type="curve"/>
      <point x="148.5" y="330.0" type="line"/>
      <point x="161.0" y="314.75"/>
      <point x="171.5" y="292.75"/>
      <point x="171.5" y="260.75" type="curve" smooth="yes"/>
      <point x="171.5" y="230.25"/>
      <point x="128.0" y="178.25"/>
      <point x="81.0" y="126.25" type="curve" smooth="yes"/>
      <point x="35.75" y="76.25" type="line"/>
    </contour>
    <contour>
      <point x="35.0" y="297.5" type="line"/>
      <point x="406.0" y="297.5" type="line"/>
      <point x="406.0" y="372.75" type="line"/>
      <point x="35.0" y="372.75" type="line"/>
    </contour>
  </outline>
</glyph>
<glyph name="copyright" format="2">
  <advance width="897.25"/>
  <unicode hex="00A9"/>
  <outline>
    <contour>
      <point x="448.5" y="-50.0" type="curve" smooth="yes"/>
      <point x="671.25" y="-50.0"/>
      <point x="845.5" y="129.0"/>
      <point x="845.5" y="352.0" type="curve" smooth="yes"/>
      <point x="845.5" y="575.5"/>
      <point x="671.5" y="753.75"/>
      <point x="448.5" y="753.75" type="curve" smooth="yes"/>
      <point x="225.75" y="753.75"/>
      <point x="51.75" y="575.5"/>
      <point x="51.75" y="352.0" type="curve" smooth="yes"/>
      <point x="51.75" y="129.0"/>
      <point x="225.75" y="-50.0"/>
    </contour>
    <contour>
      <point x="448.5" y="17.25" type="curve" smooth="yes"/>
      <point x="265.25" y="17.25"/>
      <point x="123.75" y="167.75"/>
      <point x="123.75" y="352.0" type="curve" smooth="yes"/>
      <point x="123.75" y="535.25"/>
      <point x="265.25" y="685.75"/>
      <point x="448.5" y="685.75" type="curve" smooth="yes"/>
      <point x="632.75" y="685.75"/>
      <point x="773.5" y="535.25"/>
      <point x="773.5" y="352.0" type="curve" smooth="yes"/>
      <point x="773.5" y="167.75"/>
      <point x="632.5" y="17.25"/>
    </contour>
    <contour>
      <point x="455.0" y="102.75" type="curve" smooth="yes"/>
      <point x="537.5" y="102.75"/>
      <point x="599.75" y="133.25"/>
      <point x="643.75" y="184.75" type="curve"/>
      <point x="589.25" y="227.75" type="line"/>
      <point x="556.25" y="191.25"/>
      <point x="518.0" y="170.25"/>
      <point x="458.5" y="170.25" type="curve" smooth="yes"/>
      <point x="359.0" y="170.25"/>
      <point x="281.0" y="248.25"/>
      <point x="281.0" y="354.75" type="curve" smooth="yes"/>
      <point x="281.0" y="461.0"/>
      <point x="353.25" y="540.5"/>
      <point x="456.25" y="540.5" type="curve" smooth="yes"/>
      <point x="506.75" y="540.5"/>
      <point x="550.75" y="525.5"/>
      <point x="583.25" y="485.25" type="curve"/>
      <point x="638.5" y="529.0" type="line"/>
      <point x="595.25" y="582.0"/>
      <point x="533.75" y="608.25"/>
      <point x="455.75" y="608.25" type="curve" smooth="yes"/>
      <point x="309.25" y="608.25"/>
      <point x="204.75" y="496.5"/>
      <point x="204.75" y="354.75" type="curve" smooth="yes"/>
      <point x="204.75" y="213.75"/>
      <point x="309.5" y="102.75"/>
    </contour>
  </outline>
</glyph>
<glyph name="ordfeminine" format="2">
  <advance width="535.75"/>
  <unicode hex="00AA"/>
  <outline>
    <contour>
      <point x="245.5" y="310.25" type="curve" smooth="yes"/>
      <point x="312.0" y="310.25"/>
      <point x="350.75" y="341.75"/>
      <point x="374.75" y="386.75" type="curve"/>
      <point x="379.25" y="386.75" type="line"/>
      <point x="379.25" y="320.0" type="line"/>
      <point x="450.75" y="320.0" type="line"/>
      <point x="450.75" y="702.75" type="line"/>
      <point x="378.75" y="702.75" type="line"/>
      <point x="378.75" y="638.25" type="line"/>
      <point x="374.25" y="638.25" type="line"/>
      <point x="350.25" y="682.25"/>
      <point x="309.25" y="713.0"/>
      <point x="245.5" y="713.0" type="curve" smooth="yes"/>
      <point x="136.25" y="713.0"/>
      <point x="53.5" y="627.25"/>
      <point x="53.5" y="511.0" type="curve" smooth="yes"/>
      <point x="53.5" y="393.75"/>
      <point x="136.25" y="310.25"/>
    </contour>
    <contour>
      <point x="255.5" y="379.5" type="curve" smooth="yes"/>
      <point x="179.5" y="379.5"/>
      <point x="131.5" y="436.75"/>
      <point x="131.5" y="512.0" type="curve" smooth="yes"/>
      <point x="131.5" y="587.25"/>
      <point x="179.5" y="643.5"/>
      <point x="255.5" y="643.5" type="curve" smooth="yes"/>
      <point x="331.0" y="643.5"/>
      <point x="380.25" y="580.5"/>
      <point x="380.25" y="511.0" type="curve" smooth="yes"/>
      <point x="380.25" y="437.75"/>
      <point x="331.0" y="379.5"/>
    </contour>
    <contour>
      <point x="77.5" y="190.0" type="line"/>
      <point x="450.75" y="190.0" type="line"/>
      <point x="450.75" y="256.0" type="line"/>
      <point x="77.5" y="256.0" type="line"/>
    </contour>
  </outline>
</glyph>
<glyph name="logicalnot" format="2">
  <advance width="596.0"/>
  <unicode hex="00AC"/>
  <outline>
    <contour>
      <point x="413.25" y="188.0" type="line"/>
      <point x="503.25" y="188.0" type="line"/>
      <point x="503.25" y="392.5" type="line"/>
      <point x="89.25" y="392.5" type="line"/>
      <point x="89.25" y="311.0" type="line"/>
      <point x="413.25" y="311.0" type="line"/>
    </contour>
  </outline>
</glyph>
<glyph name="registered" format="2">
  <advance width="592.0"/>
  <unicode hex="00AE"/>
  <outline>
    <contour>
      <point x="295.5" y="230.0" type="curve" smooth="yes"/>
      <point x="433.5" y="230.0"/>
      <point x="539.0" y="341.0"/>
      <point x="539.0" y="479.0" type="curve" smooth="yes"/>
      <point x="539.0" y="617.0"/>
      <point x="433.5" y="727.0"/>
      <point x="295.5" y="727.0" type="curve" smooth="yes"/>
      <point x="158.5" y="727.0"/>
      <point x="53.0" y="617.0"/>
      <point x="53.0" y="479.0" type="curve" smooth="yes"/>
      <point x="53.0" y="341.0"/>
      <point x="158.5" y="230.0"/>
    </contour>
    <contour>
      <point x="295.5" y="275.25" type="curve" smooth="yes"/>
      <point x="184.5" y="275.25"/>
      <point x="100.75" y="367.0"/>
      <point x="100.75" y="479.0" type="curve" smooth="yes"/>
      <point x="100.75" y="590.0"/>
      <point x="184.5" y="681.75"/>
      <point x="295.5" y="681.75" type="curve" smooth="yes"/>
      <point x="407.5" y="681.75"/>
      <point x="491.25" y="590.0"/>
      <point x="491.25" y="479.0" type="curve" smooth="yes"/>
      <point x="491.25" y="367.0"/>
      <point x="407.5" y="275.25"/>
    </contour>
    <contour>
      <point x="206.25" y="350.0" type="line"/>
      <point x="246.25" y="350.0" type="line"/>
      <point x="246.25" y="459.25" type="line"/>
      <point x="277.75" y="459.25" type="line"/>
      <point x="283.0" y="449.75"/>
      <point x="286.5" y="443.25"/>
      <point x="290.5" y="437.25" type="curve" smooth="yes"/>
      <point x="348.0" y="350.0" type="line"/>
      <point x="394.75" y="350.0" type="line"/>
      <point x="320.5" y="462.5" type="line"/>
      <point x="359.0" y="467.75"/>
      <point x="390.0" y="493.0"/>
      <point x="390.0" y="536.25" type="curve" smooth="yes"/>
      <point x="390.0" y="585.5"/>
      <point x="350.25" y="610.75"/>
      <point x="297.5" y="610.75" type="curve" smooth="yes"/>
      <point x="206.25" y="610.75" type="line"/>
    </contour>
    <contour>
      <point x="246.25" y="493.75" type="line"/>
      <point x="246.25" y="576.75" type="line"/>
      <point x="292.75" y="576.75" type="line" smooth="yes"/>
      <point x="327.25" y="576.75"/>
      <point x="349.25" y="566.0"/>
      <point x="349.25" y="536.0" type="curve" smooth="yes"/>
      <point x="349.25" y="504.5"/>
      <point x="327.25" y="493.75"/>
      <point x="292.75" y="493.75" type="curve" smooth="yes"/>
    </contour>
  </outline>
</glyph>
<glyph name="paragraph" format="2">
  <advance width="589.0"/>
  <unicode hex="00B6"/>
  <outline>
    <contour>
      <point x="287.5" y="0.0" type="line"/>
      <point x="355.0" y="0.0" type="line"/>
      <point x="355.0" y="627.0" type="line"/>
      <point x="440.0" y="627.0" type="line"/>
      <point x="440.0" y="0.0" type="line"/>
      <point x="507.5" y="0.0" type="line"/>
      <point x="507.5" y="700.0" type="line"/>
      <point x="257.5" y="700.0" type="line" smooth="yes"/>
      <point x="123.5" y="700.0"/>
      <point x="41.5" y="636.0"/>
      <point x="41.5" y="510.0" type="curve" smooth="yes"/>
      <point x="41.5" y="384.0"/>
      <point x="123.5" y="318.0"/>
      <point x="257.5" y="318.0" type="curve" smooth="yes"/>
      <point x="287.5" y="318.0" type="line"/>
    </contour>
  </outline>
</glyph>
<glyph name="multiply" format="2">
  <advance width="596.0"/>
  <unicode hex="00D7"/>
  <outline>
    <contour>
      <point x="436.75" y="83.75" type="line"/>
      <point x="491.25" y="138.5" type="line"/>
      <point x="154.25" y="476.25" type="line"/>
      <point x="99.75" y="421.25" type="line"/>
    </contour>
    <contour>
      <point x="154.0" y="83.25" type="line"/>
      <point x="490.75" y="421.25" type="line"/>
      <point x="436.75" y="476.5" type="line"/>
      <point x="100.0" y="138.5" type="line"/>
    </contour>
  </outline>
</glyph>
<glyph name="divide" format="2">
  <advance width="596.0"/>
  <unicode hex="00F7"/>
  <outline>
    <contour>
      <point x="77.75" y="275.25" type="line"/>
      <point x="514.75" y="275.25" type="line"/>
      <point x="514.75" y="356.75" type="line"/>
      <point x="77.75" y="356.75" type="line"/>
    </contour>
    <component base="tittle" xScale="0.95" yScale="0.95" xOffset="182.5" yOffset="-474.0"/>
    <component base="tittle" xScale="0.95" yScale="0.95" xOffset="184.5" yOffset="-149.75"/>
  </outline>
</glyph>
<glyph name="gravecomb" format="2">
  <unicode hex="0300"/>
  <anchor x="0.0" y="493.75" name="_top"/>
  <anchor x="0.25" y="630.0" name="top"/>
  <outline>
    <contour>
      <point x="-25.0" y="547.0" type="line"/>
      <point x="26.0" y="547.0" type="line"/>
      <point x="0.25" y="706.0" type="line"/>
      <point x="-102.75" y="706.0" type="line"/>
    </contour>
  </outline>
</glyph>
<glyph name="brevecomb" format="2">
  <unicode hex="0306"/>
  <anchor x="0.0" y="493.75" name="_top"/>
  <anchor x="0.0" y="637.5" name="top"/>
  <outline>
    <contour>
      <point x="0.0" y="553.0" type="curve" smooth="yes"/>
      <point x="84.75" y="553.0"/>
      <point x="141.25" y="608.75"/>
      <point x="141.25" y="688.25" type="curve"/>
      <point x="70.5" y="688.25" type="line"/>
      <point x="72.25" y="650.25"/>
      <point x="49.25" y="614.0"/>
      <point x="0.0" y="614.0" type="curve" smooth="yes"/>
      <point x="-47.0" y="614.0"/>
      <point x="-72.25" y="650.25"/>
      <point x="-70.5" y="688.25" type="curve"/>
      <point x="-141.25" y="688.25" type="line"/>
      <point x="-141.25" y="608.75"/>
      <point x="-84.5" y="553.0"/>
    </contour>
  </outline>
</glyph>
<glyph name="breveinvertedcomb" format="2">
  <unicode hex="0311"/>
  <anchor x="0.0" y="493.75" name="_top"/>
  <anchor x="0.0" y="662.5" name="top"/>
  <outline>
    <contour>
      <point x="-141.25" y="553.0" type="curve"/>
      <point x="-70.5" y="553.0" type="line"/>
      <point x="-72.25" y="591.0"/>
      <point x="-49.25" y="627.25"/>
      <point x="0.0" y="627.25" type="curve" smooth="yes"/>
      <point x="47.0" y="627.25"/>
      <point x="72.25" y="591.0"/>
      <point x="70.5" y="553.0" type="curve"/>
      <point x="141.25" y="553.0" type="line"/>
      <point x="141.25" y="632.5"/>
      <point x="84.5" y="688.25"/>
      <point x="0.0" y="688.25" type="curve" smooth="yes"/>
      <point x="-84.75" y="688.25"/>
      <point x="-141.25" y="632.5"/>
    </contour>
  </outline>
</glyph>
<glyph name="liraTurkish" format="2">
  <advance width="561.75"/>
  <unicode hex="20BA"/>
  <outline>
    <contour>
      <point x="36.5" y="301.5" type="line"/>
      <point x="499.0" y="397.75" type="line"/>
      <point x="499.0" y="478.0" type="line"/>
      <point x="36.5" y="381.75" type="line"/>
    </contour>
    <contour>
      <point x="36.5" y="433.25" type="line"/>
      <point x="499.0" y="529.5" type="line"/>
      <point x="499.0" y="608.25" type="line"/>
      <point x="36.5" y="513.25" type="line"/>
    </contour>
    <contour>
      <point x="120.25" y="22.5" type="line"/>
      <point x="231.0" y="22.5" type="line" smooth="yes"/>
      <point x="389.5" y="22.5"/>
      <point x="500.5" y="107.5"/>
      <point x="517.0" y="262.25" type="curve" smooth="yes"/>
      <point x="521.75" y="306.75" type="line"/>
      <point x="435.75" y="315.25" type="line"/>
      <point x="431.25" y="273.75" type="line" smooth="yes"/>
      <point x="419.0" y="163.5"/>
      <point x="350.0" y="113.25"/>
      <point x="241.75" y="113.25" type="curve" smooth="yes"/>
      <point x="216.75" y="113.25" type="line"/>
      <point x="216.75" y="677.5" type="line"/>
      <point x="120.25" y="677.5" type="line"/>
    </contour>
  </outline>
</glyph>
<glyph name="lari" format="2">
  <advance width="698.75"/>
  <unicode hex="20BE"/>
  <outline>
    <contour>
      <point x="585.75" y="395.75" type="curve"/>
      <point x="685.0" y="395.75" type="line"/>
      <point x="662.75" y="560.25"/>
      <point x="525.75" y="673.0"/>
      <point x="365.75" y="673.0" type="curve" smooth="yes"/>
      <point x="188.0" y="673.0"/>
      <point x="43.5" y="534.25"/>
      <point x="43.5" y="364.25" type="curve" smooth="yes"/>
      <point x="43.5" y="256.5"/>
      <point x="92.0" y="166.0"/>
      <point x="191.0" y="123.0" type="curve"/>
      <point x="191.0" y="120.25" type="line"/>
      <point x="21.5" y="120.25" type="line"/>
      <point x="21.5" y="30.0" type="line"/>
      <point x="653.0" y="30.0" type="line"/>
      <point x="653.0" y="120.25" type="line"/>
      <point x="414.0" y="120.25" type="line" smooth="yes"/>
      <point x="243.75" y="120.25"/>
      <point x="142.25" y="215.0"/>
      <point x="142.25" y="364.25" type="curve" smooth="yes"/>
      <point x="142.25" y="500.25"/>
      <point x="245.75" y="582.5"/>
      <point x="365.75" y="582.5" type="curve" smooth="yes"/>
      <point x="469.75" y="582.5"/>
      <point x="565.75" y="521.0"/>
    </contour>
    <contour>
      <point x="389.5" y="775.0" type="line"/>
      <point x="389.5" y="395.0" type="line"/>
      <point x="464.5" y="395.0" type="line"/>
      <point x="464.5" y="775.0" type="line"/>
    </contour>
    <contour>
      <point x="263.5" y="775.0" type="line"/>
      <point x="263.5" y="395.0" type="line"/>
      <point x="338.5" y="395.0" type="line"/>
      <point x="338.5" y="775.0" type="line"/>
    </contour>
  </outline>
</glyph>
<glyph name="increment" format="2">
  <advance width="710.5"/>
  <unicode hex="2206"/>
  <outline>
    <contour>
      <point x="12.5" y="0.0" type="line"/>
      <point x="698.0" y="0.0" type="line"/>
      <point x="387.25" y="700.0" type="line"/>
      <point x="322.25" y="700.0" type="line"/>
    </contour>
    <contour>
      <point x="132.25" y="52.25" type="line"/>
      <point x="346.5" y="567.5" type="line" smooth="yes"/>
      <point x="348.5" y="572.25"/>
      <point x="351.25" y="578.75"/>
      <point x="353.0" y="585.25" type="curve"/>
      <point x="356.75" y="585.25" type="line"/>
      <point x="357.75" y="578.75"/>
      <point x="361.25" y="572.25"/>
      <point x="363.25" y="567.5" type="curve" smooth="yes"/>
      <point x="575.25" y="52.25" type="line"/>
      <point x="593.0" y="83.5" type="line"/>
      <point x="113.75" y="83.5" type="line"/>
    </contour>
  </outline>
</glyph>
<glyph name="minus" format="2">
  <advance width="596.0"/>
  <unicode hex="2212"/>
  <outline>
    <contour>
      <point x="77.75" y="275.25" type="line"/>
      <point x="514.75" y="275.25" type="line"/>
      <point x="514.75" y="356.75" type="line"/>
      <point x="77.75" y="356.75" type="line"/>
    </contour>
  </outline>
</glyph>
<glyph name="blackSmallSquare" format="2">
  <advance width="367.0"/>
  <unicode hex="25AA"/>
  <outline>
    <contour>
      <point x="90.0" y="270.5" type="line"/>
      <point x="277.0" y="270.5" type="line"/>
      <point x="277.0" y="455.5" type="line"/>
      <point x="90.0" y="455.5" type="line"/>
    </contour>
  </outline>
</glyph>
<glyph name="whiteSmallSquare" format="2">
  <advance width="367.0"/>
  <unicode hex="25AB"/>
  <outline>
    <contour>
      <point x="90.0" y="270.0" type="line"/>
      <point x="277.0" y="270.0" type="line"/>
      <point x="277.0" y="456.0" type="line"/>
      <point x="90.0" y="456.0" type="line"/>
    </contour>
    <contour>
      <point x="146.0" y="326.0" type="line"/>
      <point x="146.0" y="400.0" type="line"/>
      <point x="221.0" y="400.0" type="line"/>
      <point x="221.0" y="326.0" type="line"/>
    </contour>
  </outline>
</glyph>
<glyph name="rightBlackSmallTriangle" format="2">
  <advance width="314.75"/>
  <unicode hex="25B8"/>
  <outline>
    <contour>
      <point x="90.0" y="247.75" type="line"/>
      <point x="284.75" y="360.5" type="line"/>
      <point x="90.0" y="472.25" type="line"/>
    </contour>
  </outline>
</glyph>
<glyph name="lozenge" format="2">
  <advance width="560.5"/>
  <unicode hex="25CA"/>
  <outline>
    <contour>
      <point x="247.75" y="0.0" type="line"/>
      <point x="312.75" y="0.0" type="line"/>
      <point x="524.25" y="353.5" type="line"/>
      <point x="312.75" y="700.0" type="line"/>
      <point x="247.75" y="700.0" type="line"/>
      <point x="36.25" y="352.5" type="line"/>
    </contour>
    <contour>
      <point x="280.25" y="85.75" type="line"/>
      <point x="279.25" y="92.25"/>
      <point x="275.5" y="98.75"/>
      <point x="272.75" y="103.5" type="curve" smooth="yes"/>
      <point x="132.25" y="353.75" type="line"/>
      <point x="272.0" y="597.5" type="line" smooth="yes"/>
      <point x="274.75" y="602.25"/>
      <point x="276.75" y="608.75"/>
      <point x="278.5" y="615.25" type="curve"/>
      <point x="282.25" y="615.25" type="line"/>
      <point x="283.25" y="608.75"/>
      <point x="286.0" y="602.25"/>
      <point x="288.75" y="597.5" type="curve" smooth="yes"/>
      <point x="428.0" y="352.25" type="line"/>
      <point x="289.5" y="103.5" type="line" smooth="yes"/>
      <point x="286.75" y="98.75"/>
      <point x="284.0" y="92.25"/>
      <point x="283.0" y="85.75" type="curve"/>
    </contour>
  </outline>
</glyph>
<glyph name="checkmark" format="2">
  <advance width="600.0"/>
  <unicode hex="2713"/>
  <outline>
    <contour>
      <point x="234.75" y="146.0" type="line"/>
      <point x="280.5" y="208.75" type="line"/>
      <point x="129.0" y="371.0" type="line"/>
      <point x="73.75" y="318.0" type="line"/>
    </contour>
    <contour>
      <point x="234.75" y="146.0" type="line"/>
      <point x="559.5" y="495.75" type="line"/>
      <point x="503.5" y="548.75" type="line"/>
      <point x="190.0" y="211.25" type="line"/>
    </contour>
  </outline>
</glyph>
<glyph name="ballotX" format="2">
  <advance width="600.0"/>
  <unicode hex="2717"/>
  <outline>
    <contour>
      <point x="441.5" y="153.75" type="line"/>
      <point x="496.0" y="208.5" type="line"/>
      <point x="159.0" y="546.25" type="line"/>
      <point x="104.5" y="491.25" type="line"/>
    </contour>
    <contour>
      <point x="158.75" y="153.25" type="line"/>
      <point x="495.5" y="491.25" type="line"/>
      <point x="441.5" y="546.5" type="line"/>
      <point x="104.75" y="208.5" type="line"/>
    </contour>
  </outline>
</glyph>
<glyph name="Saltillo" format="2">
  <advance width="250.5"/>
  <unicode hex="A78B"/>
  <outline>
    <contour>
      <point x="97.0" y="193.0" type="line"/>
      <point x="153.5" y="193.0" type="line"/>
      <point x="176.5" y="577.0" type="line"/>
      <point x="176.5" y="700.0" type="line"/>
      <point x="74.0" y="700.0" type="line"/>
      <point x="74.0" y="577.0" type="line"/>
    </contour>
  </outline>
</glyph>
<glyph name="saltillo" format="2">
  <advance width="255.0"/>
  <unicode hex="A78C"/>
  <outline>
    <contour>
      <point x="99.25" y="263.0" type="line"/>
      <point x="155.75" y="263.0" type="line"/>
      <point x="178.75" y="577.0" type="line"/>
      <point x="178.75" y="700.0" type="line"/>
      <point x="76.25" y="700.0" type="line"/>
      <point x="76.25" y="577.0" type="line"/>
    </contour>
  </outline>
</glyph>
<glyph name="caroncomb.alt" format="2">
  <anchor x="37.0" y="700.0" name="_topright"/>
  <outline>
    <contour>
      <point x="4.0" y="537.75" type="line"/>
      <point x="77.5" y="537.75" type="line"/>
      <point x="168.5" y="700.0" type="line"/>
      <point x="58.5" y="700.0" type="line"/>
    </contour>
  </outline>
</glyph>
<glyph name="f_f_i.ss11" format="2">
  <advance width="904.75"/>
  <anchor x="799.5" y="0.0" name="bottom_1"/>
  <anchor x="765.75" y="0.0" name="ogonek_1"/>
  <anchor x="799.5" y="493.75" name="top_1"/>
  <anchor x="374.75" y="0.0" name="caret_1"/>
  <anchor x="693.75" y="0.0" name="caret_2"/>
  <outline>
    <contour>
      <point x="116.0" y="0.0" type="line"/>
      <point x="209.75" y="0.0" type="line"/>
      <point x="209.75" y="546.25" type="line" smooth="yes"/>
      <point x="209.75" y="620.5"/>
      <point x="247.0" y="666.75"/>
      <point x="323.0" y="666.75" type="curve" smooth="yes"/>
      <point x="394.5" y="666.75"/>
      <point x="434.25" y="621.25"/>
      <point x="434.25" y="548.0" type="curve" smooth="yes"/>
      <point x="434.25" y="0.0" type="line"/>
      <point x="528.0" y="0.0" type="line"/>
      <point x="528.0" y="546.25" type="line" smooth="yes"/>
      <point x="528.0" y="620.5"/>
      <point x="565.25" y="666.75"/>
      <point x="641.25" y="666.75" type="curve" smooth="yes"/>
      <point x="712.75" y="666.75"/>
      <point x="752.5" y="621.25"/>
      <point x="752.5" y="548.0" type="curve"/>
      <point x="846.25" y="548.0" type="line"/>
      <point x="846.25" y="666.5"/>
      <point x="762.25" y="753.0"/>
      <point x="641.25" y="753.0" type="curve" smooth="yes"/>
      <point x="573.5" y="753.0"/>
      <point x="509.5" y="719.0"/>
      <point x="483.75" y="660.75" type="curve"/>
      <point x="477.75" y="660.75" type="line"/>
      <point x="451.25" y="720.0"/>
      <point x="387.5" y="753.0"/>
      <point x="323.0" y="753.0" type="curve" smooth="yes"/>
      <point x="198.0" y="753.0"/>
      <point x="116.0" y="666.5"/>
      <point x="116.0" y="551.0" type="curve" smooth="yes"/>
    </contour>
    <contour>
      <point x="17.75" y="409.75" type="line"/>
      <point x="685.0" y="409.75" type="line"/>
      <point x="685.0" y="493.75" type="line"/>
      <point x="17.75" y="493.75" type="line"/>
    </contour>
    <component base="idotless" xOffset="681.0"/>
  </outline>
</glyph>
<glyph name="f_f_l" format="2">
  <advance width="918.5"/>
  <anchor x="161.25" y="0.0" name="bottom_1"/>
  <anchor x="251.25" y="700.0" name="top_1"/>
  <anchor x="480.25" y="0.0" name="bottom_2"/>
  <anchor x="570.25" y="700.0" name="top_2"/>
  <anchor x="800.25" y="0.0" name="bottom_3"/>
  <anchor x="800.25" y="393.0" name="center_3"/>
  <anchor x="847.0" y="0.0" name="ogonek_3"/>
  <anchor x="800.5" y="700.0" name="top_3"/>
  <anchor x="897.25" y="700.0" name="topright_3"/>
  <anchor x="374.75" y="0.0" name="caret_1"/>
  <anchor x="693.75" y="0.0" name="caret_2"/>
  <outline>
    <contour>
      <point x="140.0" y="409.75" type="line"/>
      <point x="837.0" y="409.75" type="line"/>
      <point x="847.0" y="493.75" type="line"/>
      <point x="140.0" y="493.75" type="line"/>
    </contour>
    <component base="f"/>
    <component base="f" xOffset="319.0"/>
    <component base="l" xOffset="681.75"/>
  </outline>
</glyph>
<glyph name="f_t" format="2">
  <advance width="759.75"/>
  <anchor x="161.25" y="0.0" name="bottom_1"/>
  <anchor x="251.25" y="700.0" name="top_1"/>
  <anchor x="552.5" y="321.5" name="bar_2"/>
  <anchor x="614.0" y="0.0" name="bottom_2"/>
  <anchor x="541.5" y="276.0" name="center_2"/>
  <anchor x="541.5" y="620.5" name="top_2"/>
  <anchor x="669.75" y="700.0" name="topright_2"/>
  <anchor x="392.0" y="0.0" name="caret_1"/>
  <outline>
    <contour>
      <point x="65.0" y="409.75" type="line"/>
      <point x="570.0" y="409.75" type="line"/>
      <point x="572.5" y="493.75" type="line"/>
      <point x="65.0" y="493.75" type="line"/>
    </contour>
    <component base="f"/>
    <component base="t" xOffset="365.0"/>
  </outline>
</glyph>
<glyph name="four.numr" format="2">
  <advance width="315.75"/>
  <outline>
    <contour>
      <point x="181.0" y="313.5" type="line"/>
      <point x="242.0" y="313.5" type="line"/>
      <point x="242.0" y="425.5" type="line"/>
      <point x="286.5" y="425.5" type="line"/>
      <point x="286.5" y="480.0" type="line"/>
      <point x="242.0" y="480.0" type="line"/>
      <point x="242.0" y="706.5" type="line"/>
      <point x="195.5" y="706.5" type="line"/>
      <point x="8.25" y="448.25" type="line"/>
      <point x="8.25" y="425.5" type="line"/>
      <point x="181.0" y="425.5" type="line"/>
    </contour>
    <contour>
      <point x="98.5" y="480.0" type="line"/>
      <point x="98.5" y="481.0" type="line"/>
      <point x="100.75" y="483.25"/>
      <point x="103.5" y="485.5"/>
      <point x="105.25" y="488.25" type="curve" smooth="yes"/>
      <point x="168.25" y="574.75" type="line" smooth="yes"/>
      <point x="173.5" y="581.5"/>
      <point x="177.0" y="590.0"/>
      <point x="181.5" y="600.25" type="curve"/>
      <point x="183.0" y="600.25" type="line"/>
      <point x="182.0" y="594.0"/>
      <point x="181.75" y="585.5"/>
      <point x="181.75" y="578.25" type="curve" smooth="yes"/>
      <point x="181.75" y="480.0" type="line"/>
    </contour>
  </outline>
</glyph>
<glyph name="zero.lf" format="2">
  <advance width="632.0"/>
  <outline>
    <contour>
      <point x="316.0" y="-13.0" type="curve" smooth="yes"/>
      <point x="461.25" y="-12.25"/>
      <point x="565.5" y="96.25"/>
      <point x="565.5" y="244.0" type="curve" smooth="yes"/>
      <point x="565.5" y="463.0" type="line" smooth="yes"/>
      <point x="565.5" y="601.75"/>
      <point x="461.25" y="711.75"/>
      <point x="316.0" y="711.0" type="curve" smooth="yes"/>
      <point x="170.75" y="710.25"/>
      <point x="66.5" y="601.75"/>
      <point x="66.5" y="459.25" type="curve" smooth="yes"/>
      <point x="66.5" y="238.75" type="line" smooth="yes"/>
      <point x="66.5" y="96.25"/>
      <point x="170.75" y="-13.75"/>
    </contour>
    <contour>
      <point x="316.0" y="77.25" type="curve" smooth="yes"/>
      <point x="227.75" y="77.25"/>
      <point x="168.75" y="145.0"/>
      <point x="168.75" y="251.75" type="curve" smooth="yes"/>
      <point x="168.75" y="454.25" type="line" smooth="yes"/>
      <point x="168.75" y="557.5"/>
      <point x="227.75" y="620.75"/>
      <point x="316.0" y="620.75" type="curve" smooth="yes"/>
      <point x="404.25" y="620.75"/>
      <point x="463.25" y="555.25"/>
      <point x="463.25" y="450.5" type="curve" smooth="yes"/>
      <point x="463.25" y="247.25" type="line" smooth="yes"/>
      <point x="463.25" y="142.75"/>
      <point x="404.25" y="77.25"/>
    </contour>
  </outline>
</glyph>
